<?xml version="1.0" encoding="utf-8"?>
<svg version="1.1" id="MuYi" xmlns="http://www.w3.org/2000/svg" xmlns:xlink="http://www.w3.org/1999/xlink" x="0px" y="0px"
     viewBox="0 0 600 600" style="enable-background:new 0 0 600 600;" xml:space="preserve">
    <style type="text/css">
        :root {
            --primary-color: #964B00;  /* 深棕色 */
            --background-color: #FFFFFF;
        }

        @media (prefers-color-scheme: dark) {
            :root {
                --primary-color: #FFFFFF;
                --background-color: #000000;
            }
        }

        .st0 {
            stroke: var(--primary-color);
            stroke-width: 8;
            stroke-miterlimit: 10;
        }

        .st1 {
            fill: none;
        }

        /* 直接选择所有 path 元素应用填充颜色 */
        path {
            fill: var(--primary-color);
        }
    </style>
<g>
	<path d="M18.49,272.67c3.74-11.97,8.81-29.81,15.22-53.54c6.4-23.72,9.8-41.35,10.2-52.89c-4.73-5.55-10.45-8.87-17.14-9.94
		c-5.32,1.28-10.74,2.03-16.25,2.24c-5.32,0.64-9.16-1.39-11.53-6.09c-1.58-2.56-2.47-5.45-2.66-8.66
		c0.59-5.34,3.84-10.42,9.75-15.23s11.33-7.32,16.25-7.53c9.06,0.64,18.07,5.77,27.04,15.39c8.96,9.62,14.82,19.13,17.58,28.53
		c-1.38,12.18-5.37,34.25-11.97,66.2c-6.6,31.95-13.25,49.96-19.95,54.02C27.94,283.68,22.42,279.52,18.49,272.67z M9.03,61.42
		c0.19-2.99,1.92-6.41,5.17-10.26c3.25-3.85,6.35-5.98,9.31-6.41c4.92,1.07,11.47,5.83,19.65,14.27
		c8.17,8.44,12.66,14.59,13.45,18.43c-2.17,6.41-6.31,10.79-12.41,13.14c-4.14-0.85-10.74-5.02-19.8-12.5
		C15.33,70.61,10.21,65.06,9.03,61.42z M158.86,201.51c0.98-23.93,0.79-47.76-0.59-71.49c-0.59-5.56-3.35-8.55-8.27-8.98
		c-2.56,0-5.22,0.43-7.98,1.28c-4.34,24.58-10.15,50.87-17.44,78.86c-7.29,28-14.58,53.97-21.87,77.9c-1.58,1.5-3.55,2.24-5.91,2.24
		c-6.7,0.22-11.63-2.67-14.78-8.66c3.15-14.53,9.16-40.66,18.03-78.38c8.87-37.72,13.69-60.85,14.48-69.4
		c-12.81,1.28-25.52,3-38.12,5.13c-3.94-3.42-5.81-7.8-5.61-13.14c0-2.35,0.3-4.7,0.89-7.05c2.96-5.56,10.15-9.19,21.57-10.9
		c11.42-1.71,19.99-2.67,25.71-2.89l39.3-4.81c-0.4-5.55-0.59-14.75-0.59-27.57s3.25-19.98,9.75-21.48
		c6.3,0.86,10.93,4.28,13.89,10.26c0.59,13.89,0.98,27.68,1.18,41.35c6.89-0.21,16.35-0.21,28.37,0
		c12.01,0.22,21.37,1.28,28.07,3.21c7.29,2.78,10.54,8.44,9.75,16.99c0.19,3.85-1.48,6.31-5.02,7.37c-3.55,0.64-9.66,0.8-18.32,0.48
		c-8.67-0.32-15.27-0.59-19.8-0.8H182.5c0,4.92,0.34,13.57,1.03,25.97c0.69,12.4,1.52,20.31,2.51,23.72
		c3.15,3.85,6.99,6.95,11.53,9.3c4.73,3.85,13.05,11.54,24.97,23.08c11.92,11.54,19.75,19.67,23.49,24.36
		c2.76,4.92,3.94,10.37,3.55,16.35c-3.15,3.64-6.7,6.09-10.64,7.37c-3.75-1.49-12.12-8.12-25.12-19.88
		c-13-11.75-22.66-20.09-28.96-25c0,10.9-0.54,26.56-1.62,46.96c-1.09,20.41-2.91,35.42-5.47,45.04c-1.18,5.34-4.24,8.12-9.16,8.33
		c-8.08,0.43-11.82-3.74-11.23-12.5C157.97,263.17,158.46,232.28,158.86,201.51z"/>
</g>
<g>
	<path d="M3.94,412.71c31.7-23.24,50.49-35.16,56.35-35.74c6.7,0.26,10.25,3.55,10.64,9.86c-0.39,4.1-3.12,7.46-8.2,10.06
		l-21.88,15.14l1.66,63.67c0.98,34.44,1.43,60.55,1.37,78.32H24.25l-1.07-82.23l-0.98-47.17l-12.99,8.4L3.94,412.71z M183.43,416.81
		c0,5.21-3.09,8.07-9.28,8.59h-17.19c-5.6,0-10.74,0.07-15.43,0.2l-7.62,21.09c-2.87,8.07-5.44,15.82-7.71,23.24l47.95-1.27
		c6.57,0,11.05,0.78,13.43,2.34c2.38,1.56,3.73,3.65,4.05,6.25c-0.26,5.86-3.42,9.08-9.47,9.67c-25,0.26-45.7,0.81-62.11,1.66
		l-7.62,23.83l55.57,7.91c7.1,1.11,13.25,2.96,18.46,5.57c2.47,1.37,3.71,3.84,3.71,7.42v0.59c-0.72,6.31-4.49,9.47-11.33,9.47
		c-8.46,0-32.39-3.84-71.78-11.52l-5.96,23.44l-19.43-5.57l18.07-59.67l-38.38,2.44v-18.26c7.36-0.85,22.2-1.95,44.53-3.32
		l14.36-44.92c-14.06,0.52-24.54,1.27-31.45,2.25l-3.71,13.18c-1.11,4.1-1.79,8.4-2.05,12.89l-17.97-3.91l13.48-54.59
		c1.76-6.84,4.23-12.63,7.42-17.38c1.63-2.08,4.07-3.12,7.32-3.12h0.68c5.34,0.39,8.14,3.35,8.4,8.89V384
		c-0.85,4.1-2.15,8.14-3.91,12.11L94.17,409l32.62-1.66c2.21-5.34,4.07-10.03,5.57-14.06c1.5-4.04,2.99-7.42,4.49-10.16
		c2.99-5.34,7.23-8.27,12.7-8.79c5.34,0.52,8.14,3.45,8.4,8.79c-0.13,3.26-0.88,6.22-2.25,8.89l-6.54,14.55h10.25l7.32-0.2
		C177.86,406.36,183.43,409.85,183.43,416.81z"/>
	<path d="M293.29,473.16c0,6.97-3.17,17.43-9.52,31.4s-12.26,24.8-17.72,32.52s-9.85,13.18-13.13,16.41
		c-3.29,3.22-6.1,4.83-8.45,4.83c-5.21,0-7.81-2.87-7.81-8.59c0-2.87,2.47-7.94,7.42-15.23l6.35-8.79c2.08-2.86,3.78-5.4,5.08-7.62
		c-6.19-3.97-11.17-6.97-14.94-8.98l-8.79-4.49h0.2l-3.91-2.73c-1.5,2.21-2.67,4.36-3.52,6.45l-16.6-11.91l12.11-29.79
		c7.36-17.51,13.38-28.71,18.07-33.59c2.73-2.73,5.89-4.1,9.47-4.1c3.58,0,5.94,1.06,7.08,3.17c1.14,2.12,1.71,3.86,1.71,5.22
		l-0.39,6.93l9.38-0.98c9.31,0.39,16.21,3.26,20.7,8.59c4.23,4.23,6.64,9.9,7.23,16.99V473.16z M338.41,378.04
		c2.47-5.21,5.96-7.81,10.45-7.81c5.34,0.52,8.5,3.32,9.47,8.4c-0.52,3.12-1.33,6.67-2.44,10.64c3.45-0.13,7.32-0.2,11.62-0.2h11.72
		c4.82,0,8.51,0.86,11.08,2.59c2.57,1.73,3.92,4.09,4.05,7.08v-0.39c-0.39,5.86-3.58,9.12-9.57,9.77
		c-5.86,0.13-11.75,0.23-17.68,0.29h-16.41l-8.01,22.07l-17.87-6.93c0.26-1.63,0.75-3.74,1.46-6.35l2.25-8.4l-53.32,1.66l1.27,13.48
		l-21.97,3.91l-1.27-16.41c-7.36,0-14.21,0.21-20.56,0.63c-6.35,0.42-12.88,0.7-19.58,0.83v-18.85l38.09-1.86v-5.57
		c0-1.76-0.13-3.06-0.39-3.91c0.26-6.71,3.06-10.06,8.4-10.06c4.82,0,8.19,1.51,10.11,4.54c1.92,3.03,3.34,7.6,4.25,13.72
		l61.13-1.46l3.91-11.62L338.41,378.04z M233.82,487.12c9.83,4.1,19.53,8.82,29.1,14.16l2.83-0.78c4.62-7.81,7.58-16.57,8.89-26.27
		c0-3.97-1.03-6.95-3.08-8.94c-2.05-1.99-4.44-2.98-7.18-2.98c-5.86,0.26-11.33,1.07-16.41,2.44l-3.52,0.88L233.82,487.12z
		 M254.91,430.09l-0.39-2.25l-2.05,0.39C252.99,429.47,253.81,430.09,254.91,430.09z M387.04,474.23
		c-1.89,24.35-8.4,36.52-19.53,36.52c-4.62,0-6.93-3.09-6.93-9.28c4.36-8.92,6.74-18.29,7.13-28.12v-1.37
		c0-8.92-3.19-14.19-9.57-15.82c-2.34-0.39-5.84-0.59-10.5-0.59c-4.66,0-11.15,1.3-19.48,3.91c-4.23,16.15-6.54,33.3-6.93,51.46
		c0,9.83,2.62,16.86,7.86,21.09c5.24,4.23,12.45,6.35,21.63,6.35c14.65-0.98,28.94-4.26,42.87-9.86v19.14
		c-11.91,5.86-25.46,9.15-40.62,9.86h-7.62c-20.12-0.98-33.43-9.18-39.94-24.61c-2.47-5.47-3.71-11.91-3.71-19.34
		c0-23.5,2.99-46.55,8.98-69.14c1.24-4.49,4.33-6.74,9.28-6.74c3.58,0.26,6.45,1.21,8.59,2.83c7.68-2.08,15.95-3.29,24.8-3.61h6.15
		c9.31,0.52,16.08,3.78,20.31,9.77c4.49,5.73,6.9,13.35,7.23,22.85V474.23z"/>
	<path d="M419.76,406.56c0-5.99,3.03-9.02,9.08-9.08c6.71,0,10.06,3.71,10.06,11.13l1.86-0.49c-0.52,6.32-0.8,12.11-0.83,17.38
		c-0.03,5.27,0.08,10.09,0.34,14.45l1.27,29.3l2.83,52.93c0.39,7.94,0.75,14.94,1.07,21l0.59,13.48H426.4
		c-0.85-48.44-2.64-90.56-5.37-126.37C420.18,419.68,419.76,411.77,419.76,406.56z M442.8,407.73c-0.39-0.85-0.77-1.25-1.12-1.22
		c-0.36,0.03-0.67,0.57-0.93,1.61L442.8,407.73z M486.07,396.5l-14.16,13.48c-10.09-6.58-17.97-13.74-23.63-21.48
		c-1.5-2.47-2.25-4.72-2.25-6.74c0.39-6.84,4.23-10.48,11.52-10.94C463.73,371.4,473.24,379.96,486.07,396.5z M558.43,522.67
		c0,5.99-3.55,10.79-10.64,14.4c-7.1,3.61-17.42,5.42-30.96,5.42h-4.49c-14.52,0-25.98-1.68-34.38-5.03s-12.6-9.2-12.6-17.53
		c0-2.99,1.76-11.13,5.27-24.41c-2.08,0.72-3.45,1.21-4.1,1.46c-3.45-0.13-6.19-0.91-8.2-2.34c-2.02-1.43-3.03-3.42-3.03-5.96
		s1.43-4.98,4.3-7.32l-0.2,0.2l30.37-15.72c-4.82-3.12-7.23-6.22-7.23-9.28c0.52-4.49,3.32-7.03,8.4-7.62c2.73,0,5.53,0.55,8.4,1.66
		l10.25,4.3c14.06-8.07,22.36-13.61,24.9-16.6c0-3.97-2.54-5.96-7.62-5.96c-13.93,1.11-27.6,3.16-41.02,6.15
		c-5.99,7.23-11.26,14.49-15.82,21.78l-15.82-11.04l13.57-17.87c7.55-9.7,13.44-15.85,17.68-18.46c2.34-1.37,4.65-2.05,6.93-2.05
		c4.49,0,6.97,3.42,7.42,10.25c12.3-1.63,22.95-2.44,31.93-2.44c9.05,0,15.49,1.19,19.34,3.56c3.84,2.38,5.76,6.14,5.76,11.28
		c0,5.14-2.39,9.86-7.18,14.16s-11.44,9.18-19.97,14.65l34.86,11.72l-6.15,17.38c-10.68-3.58-19.82-6.77-27.44-9.57l-21.09-7.81
		L476.2,492.5c3.58,1.5,5.99,3,7.23,4.49c10.68-3.12,22.23-4.85,34.67-5.18h8.59c8.07,0,14.84,1.46,20.31,4.39
		c7.55,3.97,11.36,11.95,11.43,23.93V522.67z M521.12,506.26c-3.26-0.13-6.71-0.21-10.35-0.24c-3.65-0.03-13.44,2.49-29.39,7.57
		c0,5.99,2.18,9.96,6.54,11.91c5.21,1.89,11.91,2.83,20.12,2.83h8.01c8.2,0,15.04-0.81,20.51-2.44c3.97-1.37,6.02-4.23,6.15-8.59
		C541.99,510.2,534.8,506.53,521.12,506.26z M570.73,547.28c3.84-50.06,5.76-92.61,5.76-127.64c0-17.77-8.69-26.66-26.07-26.66
		c-17.77,0.39-33.95,2.8-48.54,7.23l-4.59-18.46c14.06-4.49,30.76-7.03,50.1-7.62h10.06c11.65,0,20.74,2.73,27.25,8.2
		c7.68,7.1,11.52,18.65,11.52,34.67v1.66c0,22.14-1.92,65.46-5.76,129.98c-0.85,5.6-4.69,8.4-11.52,8.4
		C573.73,557.11,570.99,553.86,570.73,547.28z"/>
</g>
<g>
	<path class="st0" d="M372.59,89.03c2.08,0,3.36,4.25,3.82,12.75c4.48,30.78,8.72,57.12,12.74,79.01v0.29
		c-0.54,0-0.81,0.64-0.81,1.91H388c-2.16-0.78-3.24-1.76-3.24-2.93c-0.39-0.68-1.27-1.37-2.66-2.05c-0.93,0-3.01-12.17-6.25-36.5
		c-1.24-11.33-2.43-22.77-3.59-34.3h-0.23c0,0.49-1.97,10.41-5.91,29.76l-5.1,38.11l-0.69,0.59c-1,0-2.16-1.17-3.47-3.52
		c-1.7,0-3.24-4.45-4.63-13.34c-2.01-15.83-5.14-33.76-9.38-53.79h-0.46c-5.02,31.95-7.53,55.41-7.53,70.36v0.59l-0.58,2.79h-1.74
		l-3.71-4.54c0-0.49-0.04-0.73-0.12-0.73c0.7-11.24,1.31-17.78,1.85-19.64c0-1.47-0.04-2.2-0.12-2.2
		c2.16-16.91,5.13-35.33,8.92-55.26l0.58-0.44c1.85,0.49,3.51,2.05,4.98,4.69c4.09,13.19,7.37,27.8,9.84,43.83
		c0.15,0.1,0.73,3.57,1.74,10.41c0.62,0,2.01-6.6,4.17-19.79l9.5-41.48c0-1.95,0.42-3.13,1.27-3.52
		C371.43,89.47,371.82,89.13,372.59,89.03z M382.44,179.33h2.2v-2.79h-2.2V179.33z"/>
	<path class="st0" d="M432.01,119.96c1.85,1.08,3.09,2.4,3.71,3.96v5.13c-1.31,9.09-1.97,21.35-1.97,36.79
		c0,3.22,0.27,8.21,0.81,14.95c-0.39,1.27-0.77,2-1.16,2.2c-0.77,0-1.58-0.83-2.43-2.49c-1.85,0-2.78-3.71-2.78-11.14h-0.23
		c-0.08-0.19-0.12-2.73-0.12-7.62v-0.44c-0.46-0.19-0.66-0.29-0.58-0.29l0.35-0.29l0.12-0.15l-0.35-0.59
		c-1.24,5.77-4.86,12.46-10.89,20.08c-2.08,1.96-3.55,2.93-4.4,2.93h-0.35c-2.24,0-5.06-2.98-8.45-8.94
		c-1.55-6.94-2.32-13.19-2.32-18.76v-8.36c-0.46-0.1-0.62-0.19-0.46-0.29l0.46-0.44c0.69-12.31,1.7-19.44,3.01-21.4
		c1.31,0.78,2.24,1.86,2.78,3.23c-0.54,6.94-0.81,11.97-0.81,15.1v5.72c0,8.41,0.93,16.91,2.78,25.5
		c6.18-3.22,12.55-14.46,19.11-33.71c0.85-0.78,1.97-7.28,3.36-19.5L432.01,119.96z"/>
	<path class="st0" d="M485.63,88.3c2.39,0.78,3.59,2.25,3.59,4.4c-1.39,5.77-5.41,15.39-12.04,28.88
		c-3.71,6.25-6.02,10.75-6.95,13.49c0.39,10.55,0.58,20.33,0.58,29.32l0.23,0.73c0,0.2-0.08,0.29-0.23,0.29l0.23,2.64v7.62
		c0,4.69-0.46,7.04-1.39,7.04c-3.17-2.25-4.75-4.25-4.75-6.01h-0.35l0.35-1.91v-4.84c0-1.47-0.66-2.2-1.97-2.2l1.97,4.84v-10.11
		l0.23-2.05l-0.23-1.03c0.15-0.49,0.23-0.88,0.23-1.17l-0.23-0.88c-0.08-0.19,0-0.44,0.23-0.73l-0.23-1.03
		c0.23-0.49,0.08-0.98-0.46-1.47c0,0.1,0.12,0.15,0.35,0.15l0.35-2.64v-3.08l-0.23-2.2l0.23-0.59L464.9,144
		c0-0.49,0.08-0.73,0.23-0.73c0-8.4-0.46-12.61-1.39-12.61c-1.24,0-3.98-5.28-8.22-15.83c-4.09-8.89-6.76-14.37-7.99-16.42
		c0.15-0.98,0.5-1.47,1.04-1.47c2.39,0.88,6.52,6.74,12.39,17.59l5.21,10.55h1.51c4.94-8.4,9.77-18.37,14.48-29.9
		C483.7,91.28,484.86,88.99,485.63,88.3z"/>
	<path class="st0" d="M511.23,120.11c1.08,0.78,2.04,2,2.9,3.66c-0.16,11.43-0.23,20.23-0.23,26.38v1.32l0.35,2.49l-0.46-1.17
		c0.23,0.29,0.35,0.88,0.35,1.76c0,3.71,0.19,12.41,0.58,26.09c-0.39,0.98-0.58,1.66-0.58,2.05h-0.81c-0.85,0-1.89-1.07-3.13-3.23
		c-1.47,0-2.2-1.61-2.2-4.84v-15.83c-0.31-0.59-0.5-0.93-0.58-1.03l0.23-0.29l0.35-0.44c0-0.29-0.04-0.44-0.12-0.44
		c0-0.29,0.04-0.44,0.12-0.44l0.35-1.91v-17.15l-0.46,4.69c0,0.29,0.15,0.44,0.46,0.44C509.1,127.49,510.07,120.11,511.23,120.11z
		 M511.46,98.27c1.7,0,3.44,2,5.21,6.01v1.76c-0.46,1.66-1.39,2.98-2.78,3.96h-0.46c-1.78,0-3.63-1.56-5.56-4.69v-0.29
		c0-0.19,0.08-0.29,0.23-0.29l-0.23-1.76v-1.17C509.26,99.44,510.46,98.27,511.46,98.27z"/>
	<path class="st0" d="M273.98,176.98c6.25,0,12.28,3.76,18.07,11.29c2.24,2.84,3.36,6.06,3.36,9.67v1.91
		c0,6.25-3.63,12.9-10.89,19.94c-7.8,9.67-14.17,14.51-19.11,14.51h-0.58l-1.39-0.29c0,5.96,0.62,17.79,1.85,35.47
		c-0.54,0-0.81,0.49-0.81,1.47h-0.46c-1.08,0-2.32-1.07-3.71-3.22c-2.16,0-3.24-4.25-3.24-12.75c-0.23,0-0.35-0.83-0.35-2.49h-1.74
		l1.74,6.74v-12.61c0-0.49-0.08-0.93-0.23-1.32c0.15-0.49,0.23-0.98,0.23-1.47v-2.78l-0.81-2.35l-1.39-1.17l1.97,4.98
		c0-4.01-0.66-6.01-1.97-6.01l1.97,4.84c0-2.73,0.08-4.1,0.23-4.1l-0.23-1.76v-1.91c0-1.37-0.66-2.05-1.97-2.05l1.97,4.84v-15.1
		l-0.58-2.64h-1.27l1.51,5.86v-6.45c0-1.47-0.58-2.2-1.74-2.2c1.16,4.5,1.74,4.74,1.74,0.73c0-1.27,0.12-5.52,0.35-12.75h-0.23
		c0-0.19,0.08-0.29,0.23-0.29c0.15-2.64-0.35-3.96-1.51-3.96l1.74,6.74v-6.45c0-0.29-0.04-0.44-0.12-0.44
		c0-0.19,0.08-0.29,0.23-0.29c1.08-12.51,1.89-18.91,2.43-19.2h0.58c0.46,0.2,0.69,0.83,0.69,1.91
		C263.86,178.59,268.34,176.98,273.98,176.98z M262.62,208.94v4.98c0,2.84,0.08,7.09,0.23,12.75c3.17,0,10.58-7.96,22.24-23.89
		c1.31-3.32,1.97-6.25,1.97-8.79v-3.22c0-3.61-2.59-6.06-7.76-7.33c-1.62-0.19-3.01-0.29-4.17-0.29h-3.36
		c-0.23,0-0.35-0.15-0.35-0.44c-5.33,0.88-7.99,1.86-7.99,2.93C262.89,194.62,262.62,202.39,262.62,208.94z"/>
	<path class="st0" d="M332.23,208.06c8.18,2.25,12.28,8.11,12.28,17.59c0,0.49-0.19,3.08-0.58,7.77c-0.62,0-0.23,1.22,1.16,3.66
		v0.44c-0.46,1.86-1.66,5.52-3.59,10.99c-0.77,3.91-1.16,7.23-1.16,9.97v3.66c0.39,0,0.73,0.15,1.04,0.44
		c1.08-0.49,2.97-1.61,5.68-3.37c2.01,0,3.01,0.83,3.01,2.49c0.39,0.1,0.58,0.34,0.58,0.73v0.73c-1.62,3.72-3.75,5.57-6.37,5.57
		h-1.16c-2.47,0-5.14-2.39-7.99-7.18c-0.39-0.49-0.5-1.12-0.35-1.91l-0.46-1.17c-4.86,8.11-9.07,12.17-12.62,12.17
		c-4.33,0-8.8-3.47-13.44-10.41c-0.62-2.44-0.93-4.49-0.93-6.16v-3.37c0-0.29-0.08-0.44-0.23-0.44c0-0.19,0.08-0.29,0.23-0.29
		c1.7-10.75,5.68-21.06,11.93-30.93C324.97,211.72,329.3,208.06,332.23,208.06z M313.7,255.11v0.73c0,4.69,0.73,7.04,2.2,7.04h1.39
		c3.47,0,9.3-5.91,17.49-17.74c3.17-4.2,4.75-10.9,4.75-20.08h-2.43l2.2,2.93l0.46-3.81l-0.12-2.2h0.12
		c-0.77-5.37-1.85-8.06-3.24-8.06h-1.39c-3.78,0.39-8.8,5.52-15.06,15.39l-3.47,10.11C314.67,244.7,313.7,249.93,313.7,255.11z"/>
	<path class="st0" d="M393.73,207.32c3.78,2.05,5.68,4.3,5.68,6.74c-2.86,15.54-7.22,32.83-13.09,51.89
		c-1.16,2.35-2.2,4.01-3.13,4.98h-0.93c-1.47,0-3.01-1.27-4.63-3.81c-3.63,0-7.68-11.73-12.16-35.18
		c-1.16-8.99-2.16-15.54-3.01-19.64c0.23-0.68,0.35-1.12,0.35-1.32c4.01,0,6.99,7.38,8.92,22.13c1.39,7.43,3.78,15.24,7.18,23.45
		h1.39c3.4-10.65,7.3-26.53,11.7-47.64L393.73,207.32z"/>
	<path class="st0" d="M421.76,208.06c1.08,0.78,2.04,2,2.9,3.66c-0.16,11.43-0.23,20.23-0.23,26.38v1.32l0.35,2.49l-0.46-1.17
		c0.23,0.29,0.35,0.88,0.35,1.76c0,3.71,0.19,12.41,0.58,26.09c-0.39,0.98-0.58,1.66-0.58,2.05h-0.81c-0.85,0-1.89-1.07-3.13-3.23
		c-1.47,0-2.2-1.61-2.2-4.84v-15.83c-0.31-0.59-0.5-0.93-0.58-1.03l0.23-0.29l0.35-0.44c0-0.29-0.04-0.44-0.12-0.44
		c0-0.29,0.04-0.44,0.12-0.44l0.35-1.91v-17.15l-0.46,4.69c0,0.29,0.15,0.44,0.46,0.44C419.63,215.44,420.6,208.06,421.76,208.06z
		 M421.99,186.22c1.7,0,3.44,2,5.21,6.01v1.76c-0.46,1.66-1.39,2.98-2.78,3.96h-0.46c-1.78,0-3.63-1.56-5.56-4.69v-0.29
		c0-0.19,0.08-0.29,0.23-0.29l-0.23-1.76v-1.17C419.79,187.39,420.99,186.22,421.99,186.22z"/>
	<path class="st0" d="M449.32,176.98c1.23,0,2.24,1.08,3.01,3.22c-1.47,24.63-2.2,43.78-2.2,57.46v11.73
		c0.46,9.19,1,13.78,1.62,13.78c1.54-0.68,3.78-3.76,6.72-9.23c0.15,0,0.69-0.68,1.62-2.05h0.58c1.47,0,2.86,1.42,4.17,4.25
		c0,1.66-1.85,5.77-5.56,12.31c-1.24,1.66-2.36,2.49-3.36,2.49h-0.81c-2.47,0-4.4-1.17-5.79-3.52c-3.71-1.76-5.56-8.01-5.56-18.76
		v-8.5c0-0.19-0.08-0.29-0.23-0.29c0-0.19,0.08-0.29,0.23-0.29c0.85-15.93,1.16-23.35,0.93-22.28c0,0.29,0.15,0.44,0.46,0.44
		c0.54-7.72,1-12.8,1.39-15.24l-0.35-0.73C447.35,185.24,448.4,176.98,449.32,176.98z"/>
	<path class="st0" d="M487.19,208.06c1.08,0.78,2.04,2,2.9,3.66c-0.16,11.43-0.23,20.23-0.23,26.38v1.32l0.35,2.49l-0.46-1.17
		c0.23,0.29,0.35,0.88,0.35,1.76c0,3.71,0.19,12.41,0.58,26.09c-0.39,0.98-0.58,1.66-0.58,2.05h-0.81c-0.85,0-1.89-1.07-3.13-3.23
		c-1.47,0-2.2-1.61-2.2-4.84v-15.83c-0.31-0.59-0.5-0.93-0.58-1.03l0.23-0.29l0.35-0.44c0-0.29-0.04-0.44-0.12-0.44
		c0-0.29,0.04-0.44,0.12-0.44l0.35-1.91v-17.15l-0.46,4.69c0,0.29,0.15,0.44,0.46,0.44C485.07,215.44,486.04,208.06,487.19,208.06z
		 M487.43,186.22c1.7,0,3.44,2,5.21,6.01v1.76c-0.46,1.66-1.39,2.98-2.78,3.96h-0.46c-1.78,0-3.63-1.56-5.56-4.69v-0.29
		c0-0.19,0.08-0.29,0.23-0.29l-0.23-1.76v-1.17C485.23,187.39,486.42,186.22,487.43,186.22z"/>
	<path class="st0" d="M527.85,207.62c8.03,0,13.59,6.25,16.68,18.76c0.31,2.35,0.46,4.2,0.46,5.57v3.81
		c0,9.97-2.12,19.11-6.37,27.41c-4.71,5.18-8.3,7.77-10.77,7.77c-3.94,0-7.57-2.1-10.89-6.3c-5.17-4.89-7.76-11.63-7.76-20.23v-0.73
		c0-6.16-0.39-9.23-1.16-9.23l1.39,1.91c2.62-12.21,5.83-19.94,9.61-23.16C522.13,209.48,525.07,207.62,527.85,207.62z
		 M516.38,244.7c0,6.45,1.08,12.07,3.24,16.86l2.9,0.44c3.78-0.49,7.76-3.17,11.93-8.06c3.01-8.3,4.52-15.39,4.52-21.25
		c0-0.19,0.08-1.17,0.23-2.93c-1.08-10.26-2.7-15.39-4.86-15.39c-1-0.29-1.97-0.44-2.9-0.44h-0.35c-3.32,0-7.18,4.01-11.58,12.02
		c-1.62,0-2.66,5.77-3.13,17.3V244.7z"/>
	<path class="st0" d="M583.67,207.91c2.55,0.68,5.17,3.62,7.88,8.79c1.7,3.52,2.55,10.31,2.55,20.37
		c-0.54,21.6-1.39,32.39-2.55,32.39v0.44h-0.81c-1,0-2.12-1.07-3.36-3.23c-1.7,0-2.7-2.79-3.01-8.35c0.15-0.59,0.23-1.03,0.23-1.32
		l-0.46-1.76l0.23-0.44c-0.23,0.78-0.23,1.03,0,0.73c0-0.59,0.08-1.12,0.23-1.61c0.15-10.85,0.23-19.01,0.23-24.48v-8.79l-0.35-2.79
		h0.23l-0.12,0.15v-2.93h-1.27c-7.41,4.98-12.55,13.24-15.4,24.77c-2.24,7.43-3.36,16.91-3.36,28.44c-0.31,0-0.58,0.78-0.81,2.35
		h-1.16c-0.77,0-1.85-1.22-3.24-3.66c-1.55,0-2.39-1.32-2.55-3.96c2.16-18.27,3.01-26.73,2.55-25.36v1.17l0.35-4.25
		c0-5.47,0.12-8.21,0.35-8.21l0.35-2.93v-9.53c0.39-1.07,0.85-1.61,1.39-1.61c3.01,1.56,4.52,4.79,4.52,9.67v3.96
		C573.32,213.92,579.12,207.91,583.67,207.91z"/>
</g>
<g>
	<path d="M85.24,295.28c0.87,1.18,1.99,2,3.36,2.46c1.37,0.46,2.75,0.47,4.13,0.03c1.45-0.48,2.84-0.48,4.18,0s2.44,1.31,3.3,2.48
		c0.86,1.17,1.29,2.53,1.29,4.08c0.02,1.49,0.45,2.83,1.29,4.04c0.84,1.2,1.95,2.03,3.33,2.49c1.42,0.5,2.54,1.35,3.35,2.54
		c0.81,1.19,1.23,2.52,1.28,3.99c0.04,1.46-0.38,2.83-1.28,4.1c-0.83,1.2-1.24,2.55-1.24,4.03c0,1.49,0.41,2.83,1.24,4.03
		c0.89,1.27,1.32,2.64,1.28,4.1c-0.04,1.47-0.47,2.79-1.28,3.99c-0.81,1.19-1.92,2.04-3.35,2.54c-1.38,0.46-2.49,1.29-3.33,2.49
		c-0.84,1.2-1.27,2.55-1.29,4.03c0,1.55-0.43,2.91-1.29,4.08c-0.86,1.17-1.96,2-3.3,2.48c-1.34,0.48-2.73,0.48-4.18,0
		c-1.38-0.44-2.76-0.43-4.13,0.03c-1.37,0.46-2.49,1.28-3.36,2.46c-0.89,1.27-2.02,2.11-3.38,2.53c-1.36,0.42-2.72,0.42-4.08,0
		c-1.36-0.42-2.49-1.26-3.38-2.53c-0.85-1.18-1.97-2-3.35-2.46c-1.38-0.46-2.75-0.47-4.11-0.03c-1.45,0.48-2.84,0.48-4.18,0
		c-1.34-0.48-2.44-1.31-3.3-2.48c-0.86-1.17-1.3-2.53-1.32-4.08c0-1.49-0.43-2.83-1.27-4.03c-0.85-1.2-1.96-2.03-3.32-2.49
		c-1.45-0.5-2.57-1.35-3.38-2.54c-0.81-1.19-1.23-2.52-1.26-3.99c-0.03-1.46,0.39-2.83,1.26-4.1c0.85-1.2,1.27-2.55,1.27-4.03
		c0-1.49-0.43-2.83-1.27-4.03c-0.87-1.27-1.29-2.63-1.26-4.1s0.45-2.79,1.26-3.99c0.81-1.19,1.93-2.04,3.38-2.54
		c1.36-0.46,2.47-1.29,3.32-2.49c0.85-1.2,1.27-2.55,1.27-4.04c0.02-1.55,0.46-2.91,1.32-4.08c0.86-1.17,1.96-2,3.3-2.48
		s2.73-0.48,4.18,0c1.36,0.44,2.73,0.43,4.11-0.03c1.38-0.46,2.5-1.28,3.35-2.46c0.89-1.27,2.02-2.11,3.38-2.53
		c1.36-0.42,2.72-0.42,4.08,0C83.22,293.17,84.35,294.02,85.24,295.28z M67.8,346.94c2.87,1.71,5.88,2.75,9.02,3.13
		c3.15,0.38,6.22,0.16,9.23-0.66c3.01-0.82,5.78-2.21,8.3-4.17c2.53-1.96,4.62-4.41,6.28-7.36c1.66-2.95,2.68-6.05,3.06-9.28
		c0.38-3.24,0.17-6.4-0.64-9.49c-0.81-3.09-2.16-5.94-4.05-8.54s-4.28-4.76-7.17-6.46c-2.87-1.71-5.87-2.75-9.01-3.13
		c-3.14-0.38-6.21-0.16-9.23,0.66c-3.02,0.82-5.79,2.21-8.32,4.17c-2.53,1.96-4.62,4.41-6.28,7.36c-1.66,2.95-2.67,6.05-3.04,9.28
		c-0.37,3.24-0.15,6.4,0.65,9.49c0.81,3.09,2.16,5.94,4.05,8.54C62.55,343.08,64.93,345.23,67.8,346.94z"/>
	<path d="M161.01,306.28c0.52,0,1.13,0.38,1.83,1.14v0.34c-1.79,1.3-3.77,4.41-5.94,9.34c-1.26,3.67-1.89,7.34-1.89,11.01v1.08
		c0,6.45,1.89,11.84,5.68,16.19c1.04,1.84,1.57,2.84,1.57,3.02v0.13c0,0.13-0.33,0.36-0.98,0.67c-0.39-0.04-0.98-0.45-1.76-1.21
		c-0.96,0-2.46-1.84-4.5-5.51c-2.7-3.72-4.05-7.93-4.05-12.63v-2.15c0-0.09-0.04-0.13-0.13-0.13c0-0.09,0.04-0.13,0.13-0.13
		c0.09-0.72,0.11-1.08,0.07-1.08c0-0.09,0.02-0.13,0.07-0.13c0.09-1.12,0.11-1.68,0.06-1.68c0-0.09,0.04-0.13,0.13-0.13
		c0.17-1.61,0.28-2.42,0.33-2.42c0-0.09,0.04-0.13,0.13-0.13c0.13-1.08-0.2-1.61-0.98-1.61l0.78,1.54c2.09-6.09,4.2-10.3,6.33-12.63
		c0.83-1.52,1.81-2.48,2.94-2.89H161.01z"/>
	<path d="M185.3,342.61c-0.66,0.28-1.33,0.43-2.01,0.43c-1.4,0-2.54-0.5-3.41-1.51c-0.87-1-1.31-2.14-1.31-3.41
		c0-1.38,0.45-2.54,1.34-3.48s2.02-1.41,3.38-1.41c1.72,0,3.14,0.67,4.26,2c1.12,1.33,1.67,2.94,1.67,4.82
		c0,2.17-0.81,4.18-2.44,6.04c-1.63,1.86-3.78,2.79-6.46,2.79c-2.95,0-5.56-1.04-7.83-3.12s-3.4-4.8-3.4-8.17
		c0-3.87,1.46-7.02,4.38-9.46c2.92-2.44,6.82-3.66,11.68-3.66c5.06,0,9.11,1.3,12.15,3.89c3.04,2.59,4.56,5.78,4.56,9.56
		c0,2.78-0.9,5.26-2.71,7.46c-1.81,2.2-4.29,3.74-7.46,4.64v-3.77c3.04-1.11,4.56-3.98,4.56-8.59c0-2.78-0.99-5.04-2.98-6.79
		c-1.99-1.75-4.78-2.62-8.37-2.62c-3.21,0-5.71,0.88-7.51,2.64c-1.8,1.76-2.69,4.13-2.69,7.1c0,2.34,0.57,4.2,1.71,5.58
		c1.14,1.38,2.6,2.07,4.38,2.07C182.93,345.63,184.42,344.62,185.3,342.61z M183.29,340.54c0.64,0,1.18-0.23,1.64-0.71
		c0.46-0.47,0.69-1.04,0.69-1.72c0-0.66-0.23-1.22-0.69-1.71c-0.46-0.48-1-0.72-1.64-0.72c-0.66,0-1.21,0.23-1.64,0.71
		c-0.44,0.47-0.65,1.04-0.65,1.72s0.22,1.25,0.65,1.72C182.08,340.31,182.63,340.54,183.29,340.54z"/>
	<path d="M212.12,309.84c0,0.36,1.83,1.25,5.48,2.69c4.18,1.48,7.99,3.38,11.43,5.71c3.61,2.6,5.44,4.03,5.48,4.3
		c0.3,0.99,0.46,1.68,0.46,2.08v2.35c-0.3,0.54-3.59,3.43-9.86,8.67c-2.39,2.1-5.83,5.55-10.32,10.34c-0.17,0-0.44,0.13-0.78,0.4
		c-0.44-0.58-0.65-1.1-0.65-1.54c0-0.13,0.07-0.34,0.2-0.6c-0.22-0.4-0.33-0.78-0.33-1.14v-0.2c0.04-1.12,1.7-3.4,4.96-6.85
		c5.7-5.64,9.77-9.34,12.21-11.08l0.13-0.6c-4.74-3.31-9.27-5.71-13.58-7.19c-0.26-0.31-0.98-0.69-2.15-1.14
		c-2.31-0.98-3.46-2.01-3.46-3.09c0.09-0.22,0.13-0.49,0.13-0.81v-0.2l-0.33-0.54v-1.01C211.14,310.11,211.47,309.93,212.12,309.84z
		"/>
	<path d="M303.53,341.04c-3.7,0-6.53-1.02-7.65-3.54c-0.29-0.69-0.48-1.48-0.48-2.36c0-2.43,0.86-4.82,2.39-6.46
		c1.28-1.34,2.68-2.2,4.11-2.2c2.58,0,4.59,2.36,6.09,6.49c0.8,2.16,1.34,4.66,1.34,7.8c0,2.1-0.25,3.54-1.34,4.85
		c-2.46,1.61-4.46,2.2-6.73,2.85c-3.7,1.05-8.41,2.03-12.37,2.03c-4.37,0-8.13-0.69-10.93-2.52c-2.84-1.87-4.69-4.89-4.69-8.89
		c0-2.66,0.51-5.28,1.88-7.94l1.27,0.56c-0.61,1.87-0.92,3.54-0.92,4.98c0,3.05,1.69,5.67,4.21,7.25c2.61,1.61,6.15,2.1,10.14,2.1
		c3.73,0,7.33-0.56,10.87-1.44c1.47-0.36,2.93-0.85,4.24-1.44c0.8-0.33,2.2-0.95,2.2-1.54c0-0.23-0.06-0.49-0.16-0.72
		C305.86,341.04,304.68,341.04,303.53,341.04z M301.21,330.77c-2.1,0-3.82,1.67-3.82,2.92c0,2.66,4.08,3.48,9.12,3.44
		C305.86,334.02,303.79,330.77,301.21,330.77z"/>
	<path d="M365.52,310.11h0.2c1.39,0.49,2.09,1.12,2.09,1.88l-0.13,0.54v0.13c-1.18,0.72-3.39,2.98-6.66,6.78
		c-1.26,1.12-4.05,4.08-8.36,8.87c-2.83,4.03-4.16,6.04-3.98,6.04v0.07c3.83,1.43,7.53,2.62,11.1,3.56c1.61,0.63,4,1.39,7.18,2.28
		c1.35,0.54,2.63,1.72,3.85,3.56v0.27c0,0.22-0.24,0.34-0.72,0.34l0.26,0.67c-0.18,0.09-0.3,0.13-0.39,0.13
		c-3.48-1.07-11.43-3.96-23.83-8.66c-1.31-1.21-2.07-1.81-2.29-1.81c-0.26-0.4-0.39-0.78-0.39-1.14v-0.27l2.42-1.81
		c0.13,0,2.15-2.35,6.07-7.05c0.17,0,2.39-2.42,6.66-7.25c0.26,0,1.74-1.61,4.44-4.84L365.52,310.11z"/>
	<path d="M381.06,306.15c1.17,0.18,3.09,2.37,5.75,6.58c2.74,3.54,4.11,8.28,4.11,14.24v4.5c0,3-0.74,6.67-2.22,11.02
		c-1.74,3.4-3.05,5.64-3.92,6.72c-0.91,0-1.96-0.63-3.13-1.88v-0.2c3.57-5.69,5.35-11.89,5.35-18.61v-2.62
		c0-0.18-0.07-0.36-0.2-0.54c0.13-0.18,0.2-0.36,0.2-0.54v-0.54l-0.52-1.48h-1.31l1.63,1.68v-1.68c0-0.63-0.54-0.94-1.63-0.94
		c1.09,1.12,1.63,1.25,1.63,0.4c0-4.39-2.02-9.58-6.07-15.58v-0.2C380.78,306.26,380.88,306.15,381.06,306.15z"/>
	<path d="M436.69,337.65l2.42,13.77l-12.27-6.38l-12.01,6.65l2.35-13.7l-9.79-9.87l13.25-2.08l5.88-12.69l6.33,12.43l13.38,1.81
		L436.69,337.65z M426.83,342.62l8.88,4.43l-1.57-9.94l7.25-7.59l-10.12-1.48l-4.83-9.13l-3.92,9.2l-10.25,1.41l7.38,7.59
		l-1.76,10.34L426.83,342.62z"/>
	<path d="M506.33,337.82l3.57,1.71c0.53,0.28,0.8,0.74,0.8,1.36c0,0.62-0.27,1.08-0.8,1.36l-3.57,1.71
		c-0.87,0.44-1.5,1.13-1.88,2.07l-2.84,7.02c-0.26,0.57-0.68,0.85-1.26,0.85c-0.58,0-1-0.28-1.26-0.85l-2.84-7.02
		c-0.38-0.94-1.01-1.63-1.88-2.07l-3.57-1.71c-0.53-0.28-0.8-0.74-0.8-1.36c0-0.62,0.27-1.08,0.8-1.36l3.57-1.71
		c0.87-0.44,1.5-1.12,1.88-2.07l2.84-7.02c0.25-0.57,0.67-0.85,1.26-0.85c0.58,0,1,0.28,1.26,0.85l2.84,7.02
		C504.81,336.7,505.44,337.38,506.33,337.82z M508.12,302.86l-2.17-5.08c-0.21-0.42-0.55-0.62-1-0.62s-0.78,0.21-0.97,0.62
		l-2.2,5.08c-0.3,0.68-0.79,1.18-1.47,1.51l-2.77,1.25c-0.42,0.2-0.64,0.53-0.64,0.98s0.21,0.79,0.64,0.98l2.77,1.25
		c0.7,0.31,1.19,0.81,1.47,1.51l2.2,5.12c0.19,0.42,0.52,0.62,0.99,0.62s0.8-0.21,0.99-0.62l2.17-5.12c0.3-0.68,0.79-1.18,1.47-1.51
		l2.81-1.25c0.4-0.2,0.61-0.53,0.61-0.98s-0.2-0.79-0.61-0.98l-2.81-1.25C508.88,304.06,508.39,303.56,508.12,302.86z
		 M539.77,315.06l-6.6-16c-0.4-0.83-1-1.39-1.79-1.67c-0.79-0.28-1.57-0.28-2.36,0s-1.38,0.84-1.79,1.67l-6.57,16
		c-0.89,2.17-2.36,3.73-4.4,4.69l-8.32,3.87c-0.83,0.42-1.38,1.03-1.66,1.85c-0.28,0.82-0.28,1.64,0,2.46s0.83,1.44,1.66,1.85
		l8.32,3.87c2.06,0.96,3.53,2.53,4.4,4.69l6.57,16c0.4,0.85,1,1.42,1.79,1.69s1.57,0.27,2.36,0c0.79-0.27,1.38-0.84,1.79-1.69
		l6.6-16c0.89-2.17,2.36-3.73,4.4-4.69l8.32-3.87c0.83-0.42,1.38-1.03,1.66-1.85s0.28-1.64,0-2.46c-0.28-0.82-0.83-1.44-1.66-1.85
		l-8.32-3.87C542.11,318.79,540.65,317.23,539.77,315.06z"/>
</g>
<g>
	<rect x="1013.38" y="603.48" class="st1" width="68.57" height="76.95"/>
</g>
<g>
</g>
<g>
</g>
<g>
</g>
<g>
</g>
<g>
</g>
<g>
</g>
<g>
</g>
<g>
</g>
<g>
</g>
<g>
</g>
<g>
</g>
<g>
</g>
<g>
</g>
<g>
</g>
<g>
</g>
</svg>
